# xmcd
#
# Track frame offsets:
#	150
#	11420
#	26087
#	41977
#	61895
#	76232
#	95372
#	114112
#	133737
#	147797
#	168835
#
# Disc length: 2412
#
# Revision: 1
# Processed by: cddbd v1.5.1PL0 Copyright (c) Steve Scherf et al.
# Submitted via: OrangeCD 5.2
# Normalized: r0:DSETVAR1,TDELIM( - )
#
DISCID=84096a0b
DTITLE=Various Artist - CMT - Country Music Television
DYEAR=1900
DGENRE=Country
TTITLE0=Sammy Kershaw - Love of my Life
TTITLE1=Kim Richey - I Know
TTITLE2=John Anderson - Takin' The Country Back
TTITLE3=Billy Ray Cyrus - It's All The Same To Me
TTITLE4=Terri Clark - Poor Poor Pitiful Me
TTITLE5=Keith Stegall - My Life
TTITLE6=Kathy Mattea - 455 Rocket
TTITLE7=Toby Keith - We Were in Love
TTITLE8=Mark Wills - Jacob's Ladder
TTITLE9=Neal Coty - Chance And Circumstance
TTITLE10=Tom T Hall - Life Don't Have to Mean Nothing At ALl
EXTD=
EXTT0=
EXTT1=
EXTT2=
EXTT3=
EXTT4=
EXTT5=
EXTT6=
EXTT7=
EXTT8=
EXTT9=
EXTT10=
PLAYORDER=
